<?xml version="1.0" encoding="utf-8"?>
<!-- Generator: Adobe Illustrator 25.0.0, SVG Export Plug-In . SVG Version: 6.00 Build 0)  -->
<svg version="1.1" id="图层_1" xmlns="http://www.w3.org/2000/svg" xmlns:xlink="http://www.w3.org/1999/xlink" x="0px" y="0px"
	 viewBox="0 0 140 140" style="enable-background:new 0 0 140 140;" xml:space="preserve">
<style type="text/css">
	.st0{fill:#FF6022;}
	.st1{fill:#FFFFFF;}
</style>
<g>
	<path class="st0" d="M46.7,0h46.7C119.1,0,140,20.9,140,46.7v46.7c0,25.8-20.9,46.7-46.7,46.7H46.7C20.9,140,0,119.1,0,93.3V46.7
		C0,20.9,20.9,0,46.7,0z"/>
	<path class="st1" d="M116.8,75.8c-1.1,0-2.1-0.4-2.9-1.1L73.4,37.9c-2-1.9-5.2-1.9-7.2,0L26,74.6c-1.7,1.6-4.4,1.5-6-0.2
		c-0.1-0.1-0.2-0.2-0.3-0.4c-1.6-2.1-1.3-5,0.5-6.8l40.2-36.7c5.2-4.9,13.4-4.9,18.6,0l40.5,36.7c1.9,1.8,2.1,4.7,0.6,6.8
		C119.4,75.1,118.2,75.8,116.8,75.8z"/>
	<path class="st1" d="M80,110.4H43.1c-6.2,0-11.1-5-11.1-11.1V62.2c0-2.5,2-4.5,4.5-4.5h0h27.5c5.8,0,10.5,4.7,10.5,10.5l0,0v15.2
		c0,5.8-4.7,10.5-10.5,10.5l0,0h-4.5c-5.8,0-10.5-4.7-10.5-10.5v-6.6c0-2.5,1.9-4.5,4.4-4.6c2.5-0.1,4.5,1.9,4.6,4.4
		c0,0,0,0.1,0,0.1v6.4c0,1,0.8,1.9,1.9,1.9h3.9c1,0,1.9-0.8,1.9-1.9V68.5c0-1-0.8-1.9-1.9-1.9l0,0H40.8v32.6c0,1.2,1,2.2,2.2,2.2
		l0,0H80c1.2,0,2.2-1,2.2-2.2l0,0V43.4h8.9v55.9C91.1,105.4,86.1,110.4,80,110.4z"/>
	<path class="st1" d="M103.6,110.4L103.6,110.4c-2.5,0-4.5-2-4.5-4.5V60.1c3.9-4.5,8.9-1.8,8.9,2.1V106
		C108.1,108.5,106.1,110.4,103.6,110.4z"/>
</g>
</svg>
