<?xml version="1.0" encoding="utf-8"?>
<!-- Generator: Adobe Illustrator 23.0.2, SVG Export Plug-In . SVG Version: 6.00 Build 0)  -->
<svg version="1.1" id="图层_1" xmlns="http://www.w3.org/2000/svg" xmlns:xlink="http://www.w3.org/1999/xlink" x="0px" y="0px"
	 viewBox="0 0 450 141.29" style="enable-background:new 0 0 450 141.29;" xml:space="preserve">
<style type="text/css">
	.st0{fill:#333333;}
	.st1{fill:#FF6022;}
	.st2{fill:#FFFFFF;}
</style>
<path class="st0" d="M187.6,29.92c6.39,5.22,12.14,11.07,17.14,17.46c1.28,1.92,1.28,3.51-0.32,4.9c-1.7,0.96-3.19,0.53-4.58-1.17
	c-6.49-8.62-11.82-14.05-15.97-16.29c-0.21,0-0.96,0.96-2.24,2.87c-5.11,8.84-10.75,14.8-16.93,18.1c-1.7,0.96-3.09,0.74-4.05-0.53
	c-0.75-1.7-0.32-3.09,1.49-4.05c6.28-3.83,12.14-10.65,17.46-20.65C181.32,27.15,183.98,26.94,187.6,29.92 M193.03,52.28
	c3.19,0,4.9,1.39,4.9,4.26v13.52c-0.21,6.49-5.11,9.26-14.91,8.3c-1.49-0.11-2.66-1.38-2.87-2.87c0.21-1.6,1.6-2.77,3.19-2.56
	c6.28,0.96,9.26-0.53,8.94-4.58v-8.52c0-1.38-0.53-2.02-1.49-2.02H176.1c-1.17-0.21-1.81,0.53-2.02,2.24v25.76
	c-0.21,1.92,0.85,2.77,3.19,2.56h14.91c2.45-0.43,3.94-2.02,4.26-4.9c0-1.39,1.17-2.56,2.56-2.56h0.32c1.49,0.32,2.45,1.7,2.24,3.19
	c-0.21,6.71-2.87,9.8-7.99,9.48h-18.63c-4.05-0.21-6.07-2.13-6.28-5.75V57.81c0.21-3.41,1.6-5.22,4.26-5.43L193.03,52.28z
	 M212.19,37.37v39.5c0,1.92-0.85,2.98-2.56,3.19c-1.6,0-2.87-1.17-2.87-2.77v-0.42v-39.5c0-2.34,0.96-3.51,2.87-3.73
	C211.34,33.96,212.19,35.14,212.19,37.37 M225.4,31.09v57.39c1.38,6.71-3.83,8.84-15.44,6.28c-1.6-0.32-2.56-1.81-2.34-3.41
	c0.43-1.7,1.49-2.34,3.41-2.02c6.92,1.49,9.9,0.96,8.94-1.7V31.41c0-2.24,0.85-3.51,2.56-3.73C224.23,27.9,225.18,29.07,225.4,31.09
	"/>
<path class="st0" d="M276.4,61.22c5.75,2.34,14.05,4.15,24.91,5.43c1.38,0,2.56,1.17,2.56,2.56v0.32c-0.21,1.92-1.17,2.87-2.87,2.87
	c-10.65-0.85-21.08-3.51-30.98-7.77c-10.43,4.26-21.51,6.81-32.69,7.77c-2.13,0.21-3.3-0.53-3.73-2.24c0-1.92,1.06-2.98,3.19-3.19
	c10.54-0.75,19.38-2.56,26.62-5.43c-4.47-2.24-8.52-5.11-12.03-8.62c-2.45,1.92-6.49,3.73-12.03,5.43
	c-2.13,0.53-3.41,0.11-4.05-1.49c-0.43-1.7,0.43-2.98,2.24-3.73c7.99-2.66,13.95-6.71,17.78-12.03c1.38-1.7,2.77-2.13,4.26-1.17
	c1.28,1.38,1.28,2.87,0,4.58h27.68c1.92,0,3.19,0.64,3.73,2.02c0.43,1.17,0,2.34-1.17,3.73C285.98,54.73,281.51,58.35,276.4,61.22
	 M295.35,32.9c3.83-0.21,5.75,1.81,5.75,5.96c-0.11,2.13-0.32,4.26-0.85,6.28l-0.32,0.53c-0.53,2.13-1.81,3.09-3.73,2.87
	c-1.7-0.53-2.34-1.92-2.02-4.05c1.49-4.79,1.28-7.03-0.85-6.6h-48.98c-2.24-0.21-3.3,0.64-3.19,2.56v5.75
	c-0.21,1.49-1.17,2.34-2.87,2.34c-1.7-0.21-2.56-1.06-2.56-2.56v-6.92c0.21-4.15,2.56-6.28,7.13-6.28h21.19
	c-0.21-0.96-0.64-1.81-1.17-2.56c-0.75-1.7-0.32-3.09,1.49-4.05c1.49-0.53,2.77,0,3.73,1.7c0.53,1.06,1.06,2.13,1.38,3.19
	c0.21,0.64,0.53,1.17,0.85,1.7L295.35,32.9z M293.64,79v9.48c0.21,4.79-2.45,7.03-7.99,6.92h-35.67c-5,0.53-7.24-1.17-6.92-5.22
	V77.62c0.21-3.41,2.66-5.22,7.45-5.43h35.03C290.77,72.29,293.43,74.64,293.64,79 M252.12,77.62c-2.34-0.21-3.41,0.75-3.19,2.87
	v7.45c0,1.49,1.28,2.24,4.05,2.02h32.37c1.7,0,2.56-0.64,2.56-2.02v-7.45c0-1.92-0.85-2.87-2.56-2.87H252.12z M256.17,49.51
	c4.15,3.73,8.73,6.81,13.73,9.26c3.94-2.02,7.67-4.47,11.18-7.13c0.75-0.75,1.17-1.28,1.17-1.49c-0.21-0.43-0.75-0.53-1.7-0.53
	L256.17,49.51z"/>
<path class="st0" d="M372.43,31.73c1.92,0,2.98,0.85,3.19,2.56c-0.21,1.7-1.28,2.55-3.19,2.55h-53.34
	c-0.96-0.11-1.92,0.53-2.02,1.49v0.53v47.27c-0.21,1.17,0.43,1.7,2.02,1.7h53.87c1.38-0.11,2.66,0.85,2.87,2.34v0.32
	c-0.21,1.6-1.6,2.77-3.19,2.56h-54.62c-4.58,0-6.92-2.24-6.92-6.6V38.86c-0.21-5,2.13-7.35,6.92-7.13H372.43z M363.6,39.5
	c1.92-0.21,3.09,0.43,3.41,2.02c0.21,1.7-0.64,2.77-2.56,3.19c-7.99,1.17-18.1,2.02-30.13,2.56c-1.38-0.21-2.02,0.53-2.02,2.23v6.6
	h39.82c1.49,0.11,2.66,1.49,2.45,2.98c-0.11,1.38-1.38,2.56-2.77,2.45h-17.14V83.9c0,1.38-1.17,2.56-2.56,2.56h-0.32
	c-1.92-0.21-2.87-1.17-2.87-2.88V61.54h-16.93c-0.21,9.37-2.77,16.29-7.77,20.66c-1.49,1.49-3.09,1.7-4.58,0.53
	c-1.17-1.49-0.96-3.09,0.53-4.58c4.58-3.83,6.71-9.58,6.28-17.25V48.87c-0.21-4.79,1.92-7.03,6.28-6.92
	C344,41.52,354.23,40.56,363.6,39.5"/>
<path class="st0" d="M418.32,30.56v5.11c2.45,22.36,12.56,39.93,30.13,52.7c1.7,1.17,2.02,2.87,0.85,5.11
	c-0.96,1.6-3.09,2.02-4.58,1.06c-0.11-0.11-0.21-0.11-0.21-0.21c-15.87-12.24-25.55-26.94-28.96-44.19
	c-2.87,19.27-12.67,33.65-29.49,43.01c-1.92,0.96-3.41,0.53-4.58-1.38c-0.74-1.92-0.21-3.3,1.7-4.26
	c17.78-10.11,27.15-27.26,28.32-51.32v-5.75c0.21-1.92,1.38-2.98,3.41-3.19C416.94,27.58,418.11,28.64,418.32,30.56"/>
<path class="st1" d="M47.06,0h47.17c25.98,0,47.06,21.08,47.06,47.06v47.17c0,25.98-21.08,47.06-47.06,47.06H47.06
	C21.08,141.39,0,120.2,0,94.23V47.06C0,21.08,21.08,0,47.06,0"/>
<path class="st2" d="M118.39,76.45c-1.17,0-2.13-0.42-2.98-1.17L74.1,37.9c-2.02-1.92-5.32-1.92-7.35,0L25.87,75.27
	c-1.7,1.6-4.47,1.49-6.07-0.21c-0.11-0.11-0.21-0.21-0.32-0.43c-1.6-2.13-1.28-5.11,0.53-6.92l40.99-37.37c5.32-5,13.63-5,18.95,0
	l41.31,37.37c1.92,1.81,2.13,4.79,0.64,6.92C121.06,75.81,119.78,76.45,118.39,76.45"/>
<path class="st2" d="M80.81,111.79H43.23c-6.28,0-11.29-5.11-11.29-11.29V62.6c0-2.56,2.02-4.58,4.58-4.58h28
	c5.96,0,10.75,4.79,10.75,10.75v15.44c0,5.96-4.79,10.75-10.75,10.75h-4.58c-5.96,0-10.75-4.79-10.75-10.75v-6.71
	c0-2.56,1.92-4.58,4.47-4.68c2.56-0.11,4.58,1.92,4.68,4.47v0.11v6.49c0,1.06,0.85,1.92,1.92,1.92h3.94c1.06,0,1.92-0.85,1.92-1.92
	V69.1c0-1.06-0.85-1.92-1.92-1.92H40.78v33.22c0,1.17,1.06,2.24,2.24,2.24H80.6c1.17,0,2.24-1.06,2.24-2.24V43.55h9.05v56.96
	C92.2,106.68,87.09,111.79,80.81,111.79"/>
<path class="st2" d="M104.98,111.79L104.98,111.79c-2.56,0-4.58-2.02-4.58-4.58V60.58c3.94-4.58,9.05-1.81,9.05,2.13v44.61
	C109.56,109.77,107.53,111.79,104.98,111.79"/>
<g>
	<path class="st0" d="M169.7,111.83c1.25,0.61,3.04,1.57,3.95,2.17l-0.89,1.32c-0.87-0.6-2.64-1.63-3.93-2.31L169.7,111.83z
		 M173.59,117.1l1.16,1.05c-1.13,2.25-2.61,4.91-3.87,6.9l-1.35-1.09C170.67,122.33,172.36,119.52,173.59,117.1z M170.93,106.06
		c1.28,0.67,3.04,1.69,3.93,2.33l-1,1.25c-0.87-0.68-2.59-1.77-3.89-2.51L170.93,106.06z M179.79,122.21c1.05,0.83,2.24,1.1,4,1.1
		c1.4,0,3.42-0.09,4.77-0.25c-0.17,0.44-0.37,1.23-0.4,1.68c-0.98,0.06-3.32,0.14-4.39,0.14c-1.94,0-3.19-0.37-4.36-1.32
		c-0.77-0.64-1.36-1.35-1.78-1.35c-0.49,0-1.25,1.44-1.94,2.95l-1.11-1.48c1.13-1.72,2.18-2.92,3.07-2.92
		C178.34,120.76,178.84,121.49,179.79,122.21z M186.2,113.06v1.5h-10.87v-1.5H186.2z M187.57,107.26
		c-2.95,1.13-7.57,1.82-11.51,2.21c-0.08-0.4-0.29-1.02-0.49-1.38c3.82-0.39,8.28-1.12,10.65-2.1L187.57,107.26z M186.1,113.06
		l0.32-0.08l1.12,0.7c-1.94,3.15-5.41,6.55-8.72,8.5c-0.23-0.31-0.66-0.75-0.98-1c3.13-1.79,6.42-5.16,7.92-7.75v-0.36H186.1z
		 M180.92,109.39c0.54,0.93,1.22,2.17,1.55,2.92l-1.38,0.59c-0.29-0.77-0.95-2.06-1.47-3.02L180.92,109.39z"/>
	<path class="st0" d="M198.21,106.03c-0.61,2.85-1.62,5.58-2.89,7.41c-0.28-0.26-0.94-0.71-1.31-0.93c1.27-1.64,2.15-4.19,2.65-6.79
		L198.21,106.03z M200.27,109.33v4.26c0,3.62-0.72,8.52-5.13,11.68c-0.21-0.33-0.79-0.96-1.12-1.2c4.15-2.95,4.64-7.18,4.64-10.49
		v-4.25H200.27z M204.27,114.33v1.53h-10.02v-1.53H204.27z M203.65,108.59v1.49h-7.18v-1.49H203.65z M204.2,121.96l-1.09,1.36
		c-0.9-1.31-3.35-4.22-4.34-5.28l0.99-0.91C200.59,117.89,203.52,121.17,204.2,121.96z M212.64,107.58v16.9h-1.61v-15.39h-4.52
		v15.63h-1.55v-17.14H212.64z M211.93,121.51v1.52h-6.31v-1.52H211.93z"/>
	<path class="st0" d="M223.69,112.42v1.54h-3.94v-1.54H223.69z M221.91,106.29c1.16,0.92,2.65,2.25,3.35,3.12l-1.11,1.12
		c-0.69-0.9-2.14-2.29-3.3-3.28L221.91,106.29z M221.55,123.64c0.41-0.35,1.2-1.18,1.2-2.3v-8.92h1.55v10.02c0,0-1.75,1.64-1.75,2.3
		C222.35,124.41,221.84,123.88,221.55,123.64z M222.23,123.21l0.41-0.67l3.9-2.94c0.14,0.42,0.43,1.05,0.62,1.36
		c-3.7,2.9-4.29,3.35-4.61,3.78L222.23,123.21z M231.2,119.12c-0.74,2.42-2,4.7-3.42,6.19c-0.31-0.25-1.02-0.7-1.41-0.92
		c1.43-1.35,2.55-3.44,3.18-5.61L231.2,119.12z M237.72,107.24v9.45h-9.67v-9.45H237.72z M229.62,115.15h6.45v-6.37h-6.45V115.15z
		 M235.86,118.72c1.18,1.84,2.44,4.26,2.92,5.77l-1.58,0.64c-0.47-1.52-1.66-4.01-2.8-5.88L235.86,118.72z"/>
	<path class="st0" d="M251.55,118.46l0.31,1.46c-2.24,0.91-4.65,1.86-6.49,2.58l-0.53-1.63
		C246.53,120.33,249.07,119.37,251.55,118.46z M251.6,110.93v1.51h-6.46v-1.51H251.6z M249.26,105.98v14.28h-1.51v-14.28H249.26z
		 M257.83,113.77c-0.94,2.93-2.74,5.3-4.87,6.85c-0.24-0.24-0.85-0.71-1.2-0.91c2.15-1.37,3.81-3.58,4.64-6.22L257.83,113.77z
		 M260.97,106.74v1.51h-8.91v-1.51H260.97z M252.14,112.87c0.54-0.08,1.32-0.52,2.15-1.05c0.87-0.55,3.82-2.61,5.9-4.79v-0.12
		l0.77-0.32l1.2,0.9c-2.87,2.56-5.66,4.65-8.22,6.07v0.04c0,0-1.12,0.44-1.12,0.77C252.7,114.02,252.36,113.27,252.14,112.87z
		 M261.1,113.74c-1.45,5.21-4.04,9.09-7.73,11.56c-0.26-0.25-0.86-0.69-1.22-0.91c3.78-2.27,6.24-6.04,7.54-10.93L261.1,113.74z
		 M252.81,113.04l0.91-0.43h9.34l-0.01,1.51h-8.38c-0.98,0-1.66,0.09-1.85,0.26V113.04z M264.1,112.61c0,0-0.02,0.55-0.05,0.79
		c-0.44,7.48-0.88,10.12-1.64,11c-0.41,0.51-0.83,0.69-1.45,0.74c-0.52,0.06-1.39,0.06-2.29,0.01c-0.02-0.45-0.19-1.1-0.44-1.52
		c0.88,0.09,1.69,0.09,2.05,0.09c0.34,0.01,0.54-0.05,0.75-0.3c0.6-0.64,1.05-3.33,1.46-10.47v-0.33H264.1z"/>
	<path class="st0" d="M277.09,121.79c-1.44,1.21-3.7,2.44-5.52,3.18c-0.26-0.31-0.83-0.89-1.18-1.15c1.86-0.62,3.98-1.6,5.25-2.61
		L277.09,121.79z M289.49,113.81v1.32h-18.84v-1.32H289.49z M287.12,106.5v5.96h-14.06v-5.96H287.12z M286.72,116.26v4.39h-13.17
		v-4.39H286.72z M274.61,108.94h10.93v-1.34h-10.93V108.94z M274.61,111.35h10.93v-1.36h-10.93V111.35z M275.09,119.47h10.04v-2.02
		h-10.04V119.47z M280.9,119.97v3.82c0,0.78-0.18,1.14-0.82,1.32c-0.62,0.2-1.61,0.2-3.11,0.2c-0.07-0.39-0.29-0.9-0.49-1.27
		c1.11,0.04,2.14,0.04,2.44,0.03c0.28-0.02,0.37-0.1,0.37-0.33v-3.77H280.9z M280.08,112.38c0.46,0.55,0.93,1.31,1.11,1.86
		l-1.48,0.54c-0.16-0.54-0.59-1.35-1.04-1.93L280.08,112.38z M283.75,121.29c1.92,0.67,4.39,1.83,5.7,2.69l-1.08,1.06
		c-1.23-0.86-3.7-2.08-5.64-2.82L283.75,121.29z"/>
	<path class="st0" d="M301.42,110.88c-1.03,1.78-3.04,3.7-4.88,4.7c-0.18-0.37-0.56-0.92-0.87-1.22c1.77-0.76,3.72-2.47,4.66-4.12
		L301.42,110.88z M304.24,116.74l0.27-0.06l0.86,0.35c-1.32,4.62-4.83,7.01-8.9,8.12c-0.15-0.37-0.47-0.94-0.75-1.23
		c3.79-0.86,7.13-3.06,8.25-6.94v-0.23H304.24z M306.15,109.7v1.32H295.9v-1.32H306.15z M304.5,116.74v1.35h-8.17v-1.35H304.5z
		 M297.87,106.27c0.6,0.84,1.18,1.98,1.38,2.74l-1.21,0.54c-0.19-0.75-0.77-1.93-1.33-2.81L297.87,106.27z M299.8,115.38l1.42,0.26
		c-0.67,1.72-1.76,3.75-2.58,5l-1.46-0.28C298.1,119.05,299.2,117.02,299.8,115.38z M298.18,119.41c2.23,0.85,4.96,2.27,6.45,3.29
		l-1.01,1.06c-1.43-1.07-4.19-2.54-6.44-3.4L298.18,119.41z M301.79,105.72v9.31h-1.49v-9.31H301.79z M305.55,113.21l-0.89,1.16
		c-0.74-0.69-2.96-2.38-3.88-2.97l0.8-0.7C302.33,111.12,304.93,112.77,305.55,113.21z M305.62,106.73
		c-0.63,0.98-1.34,2.04-1.91,2.75l-1.04-0.5c0.53-0.76,1.22-2.01,1.6-2.84L305.62,106.73z M313.65,110.86
		c-0.99,7.24-3.16,11.77-8.32,14.53c-0.15-0.33-0.6-0.98-0.89-1.29c4.9-2.38,6.88-6.67,7.71-13.38L313.65,110.86z M309.7,106.13
		c-0.63,4.08-1.72,7.83-3.41,10.32c-0.24-0.25-0.86-0.77-1.21-0.99c1.66-2.24,2.62-5.81,3.14-9.56L309.7,106.13z M315.53,123.89
		c-0.36,0.29-0.83,0.86-1.07,1.26c-4.01-2.41-6.09-7.49-7.16-13.71l1.32-0.24C309.59,116.9,311.67,121.82,315.53,123.89z
		 M315.02,109.86v1.49h-7.16v-1.49H315.02z"/>
	<path class="st0" d="M340.02,117.24v1.52h-18.34v-1.52H340.02z M339.8,107.96v4.39h-1.64v-2.86H323.5v2.86h-1.58v-4.39H339.8z
		 M335.4,111.89v1.5h-10.22v-1.5H335.4z M331.7,115.9v7.46c0,0.95-0.25,1.42-1.02,1.68c-0.74,0.25-1.87,0.27-3.67,0.27
		c-0.11-0.46-0.42-1.16-0.7-1.59c1.43,0.04,2.82,0.04,3.2,0.02c0.38-0.01,0.5-0.11,0.5-0.41v-7.43H331.7z M330.79,105.58
		c0.63,0.79,1.25,1.87,1.51,2.61l-1.64,0.59c-0.22-0.75-0.81-1.88-1.42-2.7L330.79,105.58z M335.36,111.89l0.37-0.08l1.08,0.83
		c-1.51,1.56-3.79,3.22-5.89,4.21c-0.21-0.28-0.65-0.73-0.9-0.95c1.81-0.88,3.86-2.47,4.91-3.68v-0.33H335.36z"/>
	<path class="st0" d="M353.85,106.23c-1.51,3.61-3.88,7.19-6.28,9.54c-0.21-0.38-0.74-1.2-1.06-1.56c2.28-2.04,4.46-5.23,5.76-8.49
		L353.85,106.23z M351.66,109.38l0.03,0.02v15.92h-1.67v-14.31L351.66,109.38z M365.6,109.84c-3.05,4.28-7.7,7.9-11.96,10.09
		c-0.26-0.35-0.77-0.9-1.18-1.21c4.21-2.08,8.86-5.69,11.6-9.9L365.6,109.84z M358.3,106.11v15.83c0,1.18,0.2,1.4,1.23,1.4
		c0.52,0,2.91,0,3.53,0c1.13,0,1.29-0.92,1.44-4.57c0.42,0.32,1.11,0.66,1.59,0.78c-0.23,3.99-0.68,5.38-2.93,5.38
		c-0.48,0-3.32,0-3.78,0c-2.14,0-2.77-0.66-2.77-3.04v-15.79H358.3z"/>
	<path class="st0" d="M374.73,106.52v7.66c0,3.32-0.21,8.03-1.72,11.18c-0.29-0.25-0.93-0.62-1.31-0.76c1.46-3,1.57-7.28,1.57-10.42
		v-7.66H374.73z M378.87,116.6v1.51h-4.99v-1.51H378.87z M378.87,106.52V108h-4.95v-1.49H378.87z M378.91,111.5v1.49h-4.99v-1.49
		H378.91z M379.47,106.52v16.9c0,0.87-0.18,1.35-0.73,1.62c-0.55,0.27-1.4,0.3-2.86,0.29c-0.05-0.39-0.24-1.11-0.46-1.53
		c0.99,0.03,1.89,0.02,2.16,0.01c0.29-0.01,0.4-0.1,0.4-0.41v-16.88H379.47z M389.3,106.58v1.49h-6.44v17.25h-1.51v-18.74H389.3z
		 M389.97,113.83v1.48h-7.73v-1.48H389.97z M389.81,113.83l0.27-0.06l0.94,0.33c-1.07,5.46-3.8,9.14-7.12,11.11
		c-0.19-0.36-0.61-0.9-0.94-1.18c3.02-1.6,5.66-5.24,6.57-9.9v-0.29H389.81z M391.65,124.12c-0.35,0.29-0.8,0.85-1.05,1.23
		c-3.46-1.88-5.92-5.73-7.26-10.27l1.28-0.34C385.83,118.87,388.3,122.51,391.65,124.12z M390.4,106.58v4.13
		c0,0.79-0.17,1.22-0.85,1.45c-0.66,0.23-1.74,0.23-3.36,0.23c-0.08-0.44-0.31-0.98-0.51-1.37c1.29,0.04,2.42,0.04,2.75,0.02
		c0.34-0.01,0.42-0.09,0.42-0.35v-4.11H390.4z"/>
	<path class="st0" d="M413.48,107.92l0.27-0.08l0.97,0.66c-3.07,4.62-10.18,6.74-16.75,7.51c-0.11-0.4-0.39-1.04-0.63-1.41
		c6.32-0.59,13.24-2.59,15.82-6.47v-0.21H413.48z M407.52,115.64c-0.85,5.78-3.67,8.34-9.07,9.65c-0.15-0.35-0.59-1.04-0.88-1.37
		c5.16-0.98,7.68-3.27,8.29-8.43L407.52,115.64z M406.17,106.03c-1.42,2.32-3.64,4.66-6.88,6.46c-0.21-0.37-0.67-0.95-1-1.2
		c3.01-1.54,5.11-3.72,6.22-5.59L406.17,106.03z M413.84,117.62v1.41h-14.79v-1.41H413.84z M416.83,114.32
		c-0.33,0.36-0.7,0.99-0.9,1.43c-6.23-0.52-11.38-2.15-14.06-5.67l1.33-0.56C405.52,112.53,410.67,113.97,416.83,114.32z
		 M413.54,107.92v1.37h-10.32v-1.37H413.54z M414.9,117.62c0,0-0.04,0.48-0.08,0.71c-0.48,3.89-0.95,5.52-1.69,6.17
		c-0.46,0.43-0.95,0.54-1.72,0.58c-0.66,0.02-1.92,0.01-3.2-0.07c-0.03-0.42-0.24-1.02-0.51-1.42c1.34,0.13,2.72,0.15,3.25,0.15
		c0.44,0,0.7-0.02,0.93-0.21c0.56-0.46,1.03-2.08,1.42-5.69l0.01-0.23H414.9z"/>
	<path class="st0" d="M441.78,108.02v1.4h-18.72v-1.4H441.78z M439.96,112.49v1.35H425.8v11.45h-1.54v-12.79H439.96z M431.35,114.77
		c-1.13,1.28-2.81,2.73-4.17,3.64c-0.12-0.26-0.5-0.96-0.74-1.27c1.27-0.78,2.76-1.88,3.73-2.94L431.35,114.77z M429.01,109.43
		c0.47,0.75,1.08,1.78,1.36,2.39l-1.48,0.61c-0.28-0.65-0.85-1.72-1.32-2.5L429.01,109.43z M429.81,117.72v5.88h-1.37v-5.88H429.81z
		 M436.27,117.72v4.87h-7.02v-1.18h5.68v-2.49h-5.68v-1.2H436.27z M432.67,105.65c0.45,0.87,0.94,2,1.18,2.73l-1.61,0.5
		c-0.22-0.75-0.71-1.93-1.11-2.82L432.67,105.65z M434.59,114.06c1.38,0.95,3.26,2.31,4.22,3.14l-0.96,1.11
		c-0.93-0.88-2.78-2.28-4.19-3.3L434.59,114.06z M437.48,109.96c-0.71,1.15-1.54,2.44-2.2,3.25l-1.33-0.38
		c0.63-0.88,1.41-2.29,1.82-3.26L437.48,109.96z M440.6,112.49v11.06c0,0.84-0.21,1.22-0.85,1.43c-0.63,0.21-1.7,0.22-3.54,0.22
		c-0.08-0.37-0.27-0.89-0.48-1.24c1.32,0.04,2.56,0.03,2.9,0.01c0.35-0.01,0.48-0.11,0.48-0.43v-11.05H440.6z"/>
</g>
</svg>
